<svg id="Layer_1" enable-background="new 0 0 66 66" viewBox="0 0 66 66" xmlns="http://www.w3.org/2000/svg"><g><g><path d="m38.71 21.86.53 2.57-6.75 1.19-.51-2.43z" fill="#1d2856"/></g><g><path d="m59.22 52.39s-2.39 3.09-3 3.45c-.33.2-.7.35-1.1.43l-39.96 7.91c-1.85.37-3.64-.84-4.01-2.69l-5-25.27c-.18-.92.02-1.82.5-2.55.01-.01.01-.01.01-.02l.06-.09.2-.25 1.89-2.41s.56.51 1.16 1.07l38.81-7.69c1.84-.37 3.64.84 4.01 2.69l5 25.27c.01.04.02.08.02.11.78.04 1.41.04 1.41.04z" fill="#1c7dc6"/></g><g><path d="m31.85 61.13c-.11 0-.22-.08-.24-.2-.03-.13.06-.26.19-.29l23.27-4.61c.36-.07.7-.21 1.02-.4.38-.23 1.69-1.8 2.64-3.01-.25 0-.57-.01-.91-.01-.13 0-.24-.11-.24-.24 0-.02-.01-.04-.01-.07l-5.01-25.27c-.16-.83-.64-1.55-1.35-2.02-.7-.47-1.55-.64-2.37-.48l-38.81 7.69c-.08.02-.16-.01-.21-.06-.38-.36-.75-.69-.97-.89l-1.98 2.53c-.47.71-.63 1.55-.47 2.37l4.74 23.94c.03.13-.06.26-.19.29-.14.03-.26-.06-.29-.19l-4.75-23.93c-.19-.95 0-1.92.54-2.73l.28-.37 1.89-2.41c.04-.05.1-.09.17-.09.07-.01.13.02.18.06 0 0 .5.46 1.07.99l38.69-7.66c.96-.19 1.93.01 2.74.55s1.36 1.37 1.55 2.33l4.99 25.19c.68.01 1.2.01 1.2.01.09 0 .18.05.22.14.04.08.03.18-.03.26-.25.32-2.43 3.13-3.07 3.51-.36.22-.76.38-1.18.46l-23.25 4.6c-.02.01-.03.01-.05.01z"/></g><g><path d="m42.01 21.2-13.43 2.66c-.58.12-1.11-.23-1.25-.79l-1.71-7.13c-.16-.69.31-1.43 1.02-1.57h.01l13.42-2.66c.59-.11 1.12.23 1.26.79l1.69 7.05.02.08c.15.7-.32 1.43-1.03 1.57z" fill="#fe515e"/></g><g><path d="m42.01 21.2-13.43 2.66c-.58.12-1.11-.23-1.25-.79l-1.71-7.13c-.16-.69.31-1.43 1.02-1.57h.01c-.16.89-.31 1.8-.15 2.69.17.93.74 1.85 1.63 2.16.44.16.97.18 1.32.49.48.44.5 1.36 1.13 1.52.63.15 1.11-.69 1.77-.72s1.13.77 1.8.77c.89.01 1.28-1.37 2.17-1.42.77-.03 1.32.98 2.08.85.71-.12 1.07-1.18 1.79-1.09.36.05.61.39.94.57.53.28 1.2.07 1.63-.35.1-.09.18-.2.26-.3l.02.08c.15.71-.32 1.44-1.03 1.58z" fill="#f83b4d"/></g><g><path d="m39.08 19.53-8.39 1.66c-.31.07-.6-.12-.68-.42l-1-3.87c-.07-.27.05-.56.27-.73.08-.07.18-.11.28-.13l8.39-1.66c.31-.07.6.12.68.42l.96 3.72.04.14c.1.38-.16.79-.55.87z" fill="#fff"/></g><g><path d="m28.36 24.13c-.6 0-1.12-.4-1.27-1l-1.71-7.13c-.09-.39-.02-.82.21-1.17.23-.36.59-.61.99-.69l13.43-2.66c.71-.14 1.37.28 1.54.98l.82 3.4c.03.13-.05.26-.18.29s-.26-.05-.29-.18l-.82-3.4c-.11-.44-.52-.7-.97-.61l-13.43 2.66c-.27.05-.52.23-.68.48-.16.24-.21.53-.15.8l1.71 7.13c.11.45.52.7.97.61l2.02-.4c.14-.03.26.06.29.19s-.06.26-.19.29l-2.02.4c-.09 0-.18.01-.27.01z"/></g><g><path d="m14.95 26.4c.05.34.15 2.49.15 2.49l5.15-.8-.91-2.29z" fill="#1d2856"/></g><g><path d="m57.25 53.67-17.37 3.44-22.78 4.51c-1.79.36-3.54-.81-3.89-2.6l-4.18-21.1-.57-2.87-.02-.08-.28-1.41c-.36-1.8.81-3.54 2.6-3.89l39.92-7.91.23-.05c1.79-.36 3.54.81 3.89 2.6l1.5 7.59 3.54 17.88c.37 1.79-.79 3.53-2.59 3.89z" fill="#509dff"/></g><g><path d="m56.31 31.9c-.33-.16-.6-.48-.76-.81-.23-.49-.31-1.04-.51-1.54-.21-.51-.61-.99-1.15-1.05-.39-.04-.83.15-1.17-.05-.41-.24-.36-.85-.18-1.29s.46-.89.33-1.35c-.15-.59-.84-.82-1.34-1.17-.62-.42-1.01-1.15-1.04-1.9-.01-.35.06-.68.2-1l.23-.05c1.79-.36 3.54.81 3.89 2.6z" fill="#308cef"/></g><g><path d="m56.54 36.57c-.34 0-.66-.05-.97-.16-1.48-.5-2.43-2.15-2.13-3.68.02-.12.05-.24.09-.36.05-.2.1-.4.11-.59.01-.22-.06-.52-.27-.64-.23-.13-.55-.01-.68.05-.11.05-.22.11-.32.17-.17.1-.35.2-.54.26-.57.19-1.23.06-1.68-.34s-.66-1.05-.54-1.63c.06-.3.21-.57.34-.83.06-.12.13-.24.18-.36.06-.14.24-.63.01-.93-.2-.25-.57-.26-1-.26-.39 0-.79 0-1.14-.19-.53-.29-.81-.92-.8-1.83.01-1.09.27-2.17.76-3.14.06-.12.21-.17.33-.11s.17.21.11.33c-.45.89-.7 1.9-.7 2.92 0 .41.06 1.13.54 1.39.24.13.57.13.91.13.49 0 1.04 0 1.38.45.27.35.29.87.05 1.43-.06.13-.13.26-.2.39-.13.24-.25.46-.3.7-.09.41.07.88.39 1.17.32.28.79.38 1.2.24.15-.05.3-.13.46-.22.12-.07.24-.13.36-.19.42-.19.81-.2 1.12-.03.4.22.53.71.51 1.09-.01.24-.07.47-.13.69-.03.11-.06.22-.08.33-.25 1.28.57 2.71 1.81 3.12.43.15.91.17 1.4.07.13-.03.26.06.29.19s-.06.26-.19.29c-.22.06-.45.08-.68.08z" fill="#308cef"/></g><g><path d="m39.88 57.11-22.78 4.51c-1.79.36-3.54-.81-3.89-2.6l-4.18-21.1c.56 1.3 1.5 2.44 2.72 3.16.96.59 2.11.97 2.75 1.89.55.79.61 1.8.76 2.74.15.95.48 1.97 1.32 2.44 1 .56 2.35.09 3.35.66 1.3.76 1.3 2.85 2.6 3.59 1.35.77 3.15-.43 4.6.16 1.05.43 1.52 1.62 2.1 2.59.58.98 1.73 1.91 2.75 1.41.55-.28.87-.92 1.43-1.19.86-.42 1.84.16 2.68.61 1.16.62 2.46 1 3.79 1.13z" fill="#308cef"/></g><g><path d="m16.44 61.93c-.7 0-1.37-.21-1.97-.6-.79-.53-1.32-1.33-1.51-2.27l-5.04-25.47c-.38-1.92.87-3.8 2.8-4.18l12.36-2.45c.14-.03.26.06.29.19s-.06.26-.19.29l-12.36 2.45c-1.66.33-2.74 1.95-2.41 3.61l5.05 25.47c.16.8.62 1.5 1.3 1.95.68.46 1.5.62 2.3.46l40.15-7.95c.81-.16 1.5-.62 1.96-1.3s.62-1.5.46-2.3l-5.05-25.47c-.16-.8-.62-1.5-1.3-1.95-.68-.46-1.5-.62-2.3-.46l-3.08.61c-.14.03-.26-.06-.29-.19s.06-.26.19-.29l3.08-.61c.93-.19 1.88 0 2.67.53s1.32 1.33 1.51 2.27l5.05 25.47c.19.93 0 1.88-.53 2.66-.53.79-1.33 1.32-2.27 1.51l-40.15 7.95c-.25.04-.48.07-.72.07z"/></g><g><path d="m50.59 39.66c1.46 6.47-2.61 12.76-9.08 14.04-6.48 1.28-12.91-2.93-14.37-9.4-1.46-6.48 2.61-12.76 9.08-14.05 6.48-1.27 12.91 2.94 14.37 9.41z" fill="#ffcd3b"/></g><g><path d="m39.16 54.18c-3.67 0-7.23-1.64-9.67-4.57-.09-.1-.07-.26.03-.34.1-.09.26-.07.34.03 2.85 3.42 7.29 5.02 11.59 4.17 3.05-.61 5.66-2.36 7.34-4.94 1.69-2.6 2.24-5.73 1.55-8.81-1.43-6.34-7.75-10.47-14.08-9.22-4.75.94-8.4 4.78-9.07 9.56-.02.13-.13.23-.28.21-.13-.02-.23-.14-.21-.28.7-4.98 4.5-8.99 9.46-9.97 6.59-1.31 13.16 2.99 14.65 9.59.72 3.21.15 6.47-1.62 9.18-1.75 2.69-4.47 4.52-7.65 5.15-.78.16-1.58.24-2.38.24z"/></g><g><path d="m53.43 38.5c1.46 6.47-2.61 12.76-9.08 14.04-6.48 1.28-12.91-2.93-14.37-9.4-1.46-6.48 2.61-12.76 9.08-14.05 6.48-1.28 12.91 2.93 14.37 9.41z" fill="#fff"/></g><g><path d="m49.06 43.29c-.8 2.5-2.88 4.49-5.67 5.04-4.15.82-8.28-1.88-9.21-6.02-.42-1.88-.12-3.73.72-5.27.54-.98 1.3-1.84 2.23-2.5.13-.1.27-.19.4-.27.74-.45 1.57-.78 2.48-.96 3.79-.76 7.56 1.43 8.89 4.98.09.24.17.49.24.75.03.1.05.2.07.29.32 1.37.24 2.73-.15 3.96z" fill="#1d2856"/></g><g><path d="m42.02 53.01c-5.73 0-10.97-4.02-12.27-9.82-.72-3.21-.15-6.47 1.62-9.18 1.75-2.69 4.47-4.52 7.66-5.15 5.17-1.03 10.48 1.37 13.2 5.95.07.12.03.27-.09.33-.11.07-.26.03-.33-.08-2.62-4.41-7.72-6.71-12.69-5.72-3.05.61-5.66 2.36-7.34 4.94-1.69 2.6-2.24 5.73-1.55 8.81 1.43 6.33 7.75 10.46 14.08 9.21 2.52-.5 4.74-1.78 6.4-3.7.09-.1.24-.11.34-.02s.11.24.02.34c-1.73 2-4.04 3.33-6.67 3.85-.8.17-1.6.24-2.38.24z"/></g><g><path d="m23.1 34.63c-.07.3-.31.56-.62.62l-9.12 1.8c-.35.07-.68-.14-.76-.49l-.58-2.42c-.07-.25.02-.52.2-.71.1-.12.25-.21.42-.25l9.12-1.8c.35-.07.68.14.76.48l.59 2.42c.02.13.02.24-.01.35z" fill="#fff"/></g><g><path d="m23.1 34.63c-.07.3-.31.56-.62.62l-9.12 1.8c-.35.07-.68-.14-.76-.49l-.58-2.42c-.07-.25.02-.52.2-.71.06.61.41 1.32.74 1.69.38.43 1.04.67 1.55.39.38-.21.64-.68 1.08-.7.33-.02.61.23.85.46.25.22.57.45.89.35.49-.15.62-.95 1.13-.96.44-.01.68.58 1.11.62.44.04.69-.48 1.07-.69.42-.23.94-.06 1.4.07.35.08.76.12 1.06-.03z" fill="#d8d6d6"/></g><g><ellipse cx="19.13" cy="40.5" fill="#fe515e" rx="2.28" ry="2.37" transform="matrix(.6 -.8 .8 .6 -24.755 31.529)"/></g><g><g><g><path d="m38.44 2.57 2.26 7.25c.16.52.85.61 1.15.16l3.26-5.03c.22-.34.08-.79-.3-.94l-5.51-2.22c-.51-.2-1.02.27-.86.78z" fill="#ffcd3b"/></g></g><g><g><path d="m31.41 7.19 6.3 3.41c.52.28 1.1-.23.91-.78l-2.04-5.69c-.13-.37-.56-.53-.9-.35l-4.26 2.29c-.45.24-.45.88-.01 1.12z" fill="#ffcd3b"/></g></g><g><g><path d="m45.79 8.2-2.57 3.16c-.34.42-.04 1.04.5 1.04h3.77c.45 0 .75-.45.6-.86l-1.2-3.16c-.18-.46-.79-.56-1.1-.18z" fill="#ffcd3b"/></g></g></g><g><path d="m21.1 25.82-7.9 1.28c-.43.07-.81-.18-.91-.59l-.49-2.22c-.1-.48.24-.99.74-1.11.01-.01.02-.01.03-.01l7.79-1.54c.43-.08.83.16.92.57l.49 2.04.1.44c.14.51-.24 1.06-.77 1.14z" fill="#fe515e"/></g><g><path d="m6 33.8c0 .01 0 .01-.01.02v-.01z" fill="#1c7dc6"/></g><g><path d="m8.44 34.96.02-.03c0 .04-.01.07 0 .11z" fill="#308cef"/></g><g><path d="m39.08 19.53-8.39 1.66c-.31.07-.6-.12-.68-.42l-1-3.87c-.07-.27.05-.56.27-.73l.01.01c.06.53.12 1.07.4 1.52s.83.77 1.33.6c.42-.14.76-.59 1.19-.51.59.12.68 1.1 1.28 1.19.36.05.66-.28.87-.58.21-.31.47-.65.84-.65.33.01.57.29.79.53s.53.49.84.4c.43-.12.6-.79 1.04-.78.25.01.42.24.61.4.3.25.72.33 1.09.24l.04.14c.12.36-.14.77-.53.85z" fill="#d8d6d6"/></g><g><path d="m21.1 25.82-7.9 1.28c-.43.07-.81-.18-.91-.59l-.49-2.22c-.1-.48.24-.99.74-1.11.04.44.11.87.32 1.24.25.45.79.78 1.28.64.25-.07.46-.25.68-.39s.51-.23.74-.12c.46.22.42 1.07.93 1.16.25.04.49-.17.63-.39.13-.22.22-.48.42-.65.27-.24.68-.25 1.04-.16s.68.25 1.04.33c.58.11 1.19-.05 1.71-.32.16-.08.31-.17.45-.27l.1.44c.13.5-.25 1.05-.78 1.13z" fill="#f83b4d"/></g><g><path d="m49.06 43.29c-.8 2.5-2.88 4.49-5.67 5.04-4.15.82-8.28-1.88-9.21-6.02-.42-1.88-.12-3.73.72-5.27.12.69.24 1.37.36 2.06.07.42.15.85.35 1.22.2.38.55.7.97.76.72.1 1.35-.57 2.08-.55.61.01 1.11.53 1.39 1.07.28.55.42 1.17.73 1.7s.88.98 1.48.89c1.09-.17 1.52-1.89 2.61-1.84.7.03 1.11.77 1.71 1.15.75.48 1.75.3 2.48-.21z" fill="#0b183d"/></g><g><g><path d="m49.15 39.04c-.29.49-.76.88-1.31 1.02-.16.04-.33.06-.49.06-.9 0-1.78-.59-2.08-1.45l-.05-.16c-.1-.34-.2-.59-.36-.61-.13-.01-.25.12-.42.33-.12.16-.27.33-.46.44-.5.29-1.12.03-1.47-.38-.19-.22-.32-.48-.45-.72-.08-.15-.15-.29-.24-.43-.18-.29-.5-.58-.83-.54-.22.03-.41.18-.63.36-.17.14-.35.29-.57.39-.77.35-1.67-.12-2.09-.77-.4-.63-.49-1.37-.56-2.04.13-.1.27-.19.4-.27.04.04.07.1.08.16.07.63.14 1.34.49 1.89.31.47.96.83 1.48.6.16-.07.31-.2.46-.32.24-.2.51-.43.88-.48.47-.05.96.23 1.3.76.1.15.18.31.27.47.12.23.23.45.38.63.22.25.6.43.86.28.12-.07.22-.2.33-.33.2-.24.45-.55.85-.5.5.05.67.57.79.94l.05.14c.27.78 1.19 1.28 1.99 1.07.59-.15 1.06-.69 1.19-1.3.06.25.14.5.21.76z" fill="#0b183d"/></g></g><g><path d="m19.52 48.06c-.46 0-.87.22-1.17.58s-.49.84-.49 1.39c0-1.08-.74-1.96-1.65-1.96.46 0 .87-.22 1.17-.57.3-.36.48-.84.48-1.39 0 .54.19 1.03.49 1.39.3.34.71.56 1.17.56z" fill="#fff"/></g><g><path d="m40.06 40.5c-.46 0-.87.22-1.17.58s-.49.84-.49 1.39c0-1.08-.74-1.96-1.65-1.96.46 0 .87-.22 1.17-.57.3-.36.48-.84.48-1.39 0 .54.19 1.03.49 1.39.3.34.72.56 1.17.56z" fill="#fff"/></g><g><path d="m21.01 50.31c-.24 0-.45.11-.6.3-.16.18-.25.44-.25.71 0-.56-.38-1.01-.85-1.01.24 0 .45-.11.6-.29s.25-.44.25-.71c0 .28.1.53.25.71s.37.29.6.29z" fill="#fff"/></g><g><g><path d="m33.73 27.1c.12.45-.97 1.13-2.44 1.52s-2.75.33-2.86-.13.98-1.13 2.44-1.52c1.46-.38 2.74-.32 2.86.13z" fill="#fff"/></g><g><path d="m36.08 26.48c.06.2-.27.45-.72.57s-.87.06-.92-.14.27-.45.72-.57c.45-.11.86-.05.92.14z" fill="#fff"/></g></g><g><g><path d="m47.36 38.55c.43-.16 1.11.63 1.14 1.81.01.59-.12 1.08-.37 1.47-.26.4-.62.5-.8.35-.19-.15-.27-.38-.37-.64-.09-.26-.15-.7-.16-1.14-.01-.88.11-1.69.56-1.85z" fill="#fff"/></g><g><path d="m46.69 37.04c.17-.11.46.04.61.35s.09.62-.1.69-.43-.1-.56-.37c-.14-.27-.12-.56.05-.67z" fill="#fff"/></g></g></g></svg>