<svg id="Layer_1" enable-background="new 0 0 100 100" height="512" viewBox="0 0 100 100" width="512" xmlns="http://www.w3.org/2000/svg"><g id="Sticky_Notes"><g><g><path d="m92.3981934 51.9427872c-.1885529-.043251-.3771133-.0924644-.5656662-.1369934.2524719-.867363.3142624-1.7654037.1928177-2.6374512 1.3382111-3.1220894-.0150223-6.7229462-3.0637817-8.1812248-1.6278305-2.6787224-5.0069733-3.7926979-7.9440918-2.491291-4.3502655-.7859268-8.4434433 1.8210526-10.4338837 5.5228996-.3690186-.1891975-.7371826-.3809509-1.1027908-.5752602-.5981064-4.3722382-.4130478-3.1216698-.4695816-3.8895912-.7208328-10.9365482-1.5642166-12.7709312-2.290802-21.5793953-.1892319-2.3945646-1.4975967-4.5565195-3.6756821-5.8667727v-.0008516c-1.9753189-1.175189-4.4103699-1.4404364-6.6593513-.6502542-2.6768646.9417181-5.3980446 1.7973595-8.1422348 2.5609608-.2359276-1.0852652-.983078-2.9662857-1.8638344-4.3370142-2.2634392-3.5229902-6.5416527-5.566545-10.9999847-4.0621696-3.3906231-2.1842461-7.7440968-.7165694-9.2394867 2.8845963-1.8340626 1.5388784-2.6854038 4.0163002-2.0391808 6.4635487-.2045364 1.1086493-.1090851 2.2260332.2624874 3.2636271-3.2881279.2556705-6.5979881.3894711-9.9067831.3894711-1.5357246 0-3.097868-.0272713-4.6259212-.0818157-.0784063-.0025558-.2173195-.0051117-.2957249-.0051117-3.3390498 0-6.296299 2.1859779-7.2252331 5.3281612-.3349276 1.1164246-.3971406 2.3001766-.1926045 3.3552418 5.813798 32.3556824 5.9608302 37.8201447 8.1098499 41.736412 1.4266367 2.59021 3.5679274 4.4670715 6.0849447 5.9860916 6.231184 3.7060318 13.4086266 4.5081558 20.4945011 3.6492615.8062134 1.5757751 2.1680832 2.8379364 3.8222656 3.519722 6.3846016 2.6414719 12.0332298 8.4015045 20.5277405 11.5042953l2.1646729-5.7125168-2.0436554 5.7576828c6.9500656 2.6617279 16.7342682 2.6522293 21.77285-2.6078339.3249817-.3377228 1.1239395-.9030838 1.7769089-2.1953506l7.3402863-14.5109711c.4440079-.8812103.6724091-1.8323059.6800766-2.7902145 3.1945953-6.9495239 4.3695297-9.4288139 4.4972382-9.7035255 1.8958057-4.0639974-.4902798-8.8832189-4.946365-9.9063626z" fill="#fff"/></g><g><path d="m91.8079071 59.2661438c-4.2164078 9.012825-7.9036407 17.2162323-11.4176254 24.6821747-1.227005 2.6244049-2.1717758 3.923317-5.2668991 4.7985611-6.1241302 1.7320404-12.4603958-.5832825-17.8156967-3.7381516-2.7630692-1.3857574-8.7354584-6.2232742-14.342659-8.5454941-.7069588-.2916412-1.0427742-1.0604706-.7423439-1.6878662 4.9126587-10.2140732 9.1208344-20.7604103 12.8934097-31.2923393.2594223-.7062149 1.1496124-.9467621 1.8557777-.468338 10.4190216 7.1227303 21.7393875 12.0538139 34.0583649 14.8817101.6539383.1502151 1.0339279.821846.7776718 1.3697433z" fill="#9e7ae6"/></g><g><path d="m91.8079071 59.2661438c-.7069626 1.5111694-1.4139786 3.0134964-2.1032486 4.5158195-11.9195709 4.0522499-25.7135124 3.5896034-36.780159 10.9580193-1.7762756 1.1841965-3.3404655 2.819046-4.9930038 4.2771988-1.5818291-.9544296-3.216732-1.8292923-4.9664688-2.5539474-.7069588-.2916412-1.0427742-1.0604706-.7423439-1.6878662 4.5776863-9.5176163 8.6515923-19.5654373 12.2483139-29.5160637.5832291-.8130035 1.1222801-1.6436958 1.6260033-2.4920807.2916412-.0176926.6009216.0618668.8748703.247467 10.4190216 7.1227303 21.7393875 12.0538139 34.0583649 14.8817101.6539382.1502151 1.0339278.821846.7776717 1.3697433z" fill="#8366d8"/></g><g><path d="m64.430542 72.0136261 2.3204117-2.5107422c-3.2880783-3.0788574-1.0587997-6.8403816 3.4492798-4.0322342 1.6225128-2.1385231 2.5527573-3.3478813 2.7917175-3.627224 1.0706711-1.2516212 2.8171539-.8413811 5.2394562 1.2307205 1.7037048 1.4573936 2.7255173 2.9366035 3.0654221 4.4376106.3408966 1.5018616.0667114 2.7715759-.8215714 3.8099823-.8874435 1.0374298-2.2324524 1.5586548-4.0323486 1.5625458.9381332 2.4862518.719101 4.5347595-.6580811 6.1446915-3.7421112 4.3745575-10.6281357 1.3095932-13.9014511-3.7139664-.7274094-1.1179657-1.1847229-2.0920715-1.3737793-2.9221573-.1890526-.8300934-.1715584-1.3740997.0505142-1.6337051.4624176-.5405655 1.0161934-.5307083 1.3696709-.2283325.270771.2316284.5879631 1.3692169.8790588 2.3075104.3539925 1.1485825 1.3156395 2.7168732 2.6775627 3.881897 6.0698929 5.1923523 11.1953735.9906769 9.1695938-3.8072586-2.2366867-.1629105-4.3750458-.9083633-6.4171906-2.2398911-1.3326569 1.6563187-2.0102539 2.5118561-2.2251968 2.7631302-.2963791.3464661-.6270523.4892349-.9917374.4319763-.2254562-.0321884-.4122238-.1116028-.5583115-.2365723l-.3201904-.5149307c-.1159057-.3760681-.0201797-.7437515.2871705-1.1030502zm3.4842834-3.8313522 1.1610184-1.3572388c-1.0358276-.7014694-1.6969376-.8858032-1.9806519-.5541458-.3757476.4392547-.1022109 1.0766601.8196335 1.9113846zm6.6712265-5.0111084c-.3993912.4668922-1.3473129 1.6030045-2.8464584 3.409462 1.6099396 1.3771744 2.9178314 2.9335861 3.9227066 4.6683884 1.4732513.0842056 2.5569229-.2793808 3.2509995-1.0907669.6940765-.8113785.8704453-1.6929779.5293961-2.6411285-.7134705-1.9904787-3.1121598-3.864834-4.8566438-4.345955zm-4.0479431 4.7320785-1.1779099 1.3769836c1.1328812.886322 3.1693497 1.8716125 4.5198746 2.0339584-.8131256-1.3325347-2.7911453-3.102661-3.3419647-3.410942z" fill="#010101"/></g><g><path d="m57.2604065 84.9814987c-.0005379.0017242.0002441-.0007858-.0002975.000946 5.3658791 3.1643295 11.7182007 5.5026779 17.8608398 3.7665253 1.7718048-.5090485 3.2544479-1.2976379 4.2116165-2.8215637-1.5098648.4146042-3.366951-.3103943-4.9823761-.9552765-2.0439987-.8104553-3.9455109-1.4123688-5.6883545-2.6996765-.3902664-.2882538-.9317856-.2415314-1.207962.1045532-.4728394.5925522-1.1011734 1.3875961-1.2191086 1.4838486-2.6178017 2.1364975-5.6904984 1.9790268-8.9743576 1.1206436z" fill="#8366d8"/></g><g><path d="m64.9076538 64.9484711c-7.4055252.9897537-13.9450264 3.9943466-21.2621498 6.0268784-.0265388.0088501-.0441742.0176926-.070713.0265427-7.9534225 2.2004395-16.8701191 3.0046463-24.1430664-1.3167267-1.5199604-.9102554-2.9781113-2.0767593-3.8529787-3.6851273-1.4258661-2.5874443-1.5131273-6.834343-7.4497004-39.864315-.0353832-.185545-.0176916-.362299.0353289-.5302067.1590624-.5655899.7423429-.9897537 1.431612-.9632721 16.7729225.5921288 32.9978981-1.8557758 48.8163414-7.4231625 1.0339851-.3623524 2.1386261.2385654 2.218132 1.2371674 1.2156639 14.7968445 3.0384941 29.9444427 5.8148537 44.5833702.1679067.9014053-.5302134 1.7674255-1.5376597 1.9088516z" fill="#71d0ff"/></g><g><path d="m64.3243713 50.6234512c-12.2305641-3.8706703-26.0783997-2.3683472-37.5843163-8.1390228-8.0414486-4.0336647-13.2648735-10.6380367-18.5756798-16.878912.1590624-.5655899.7423429-.9897537 1.431612-.9632721 16.7729225.5921288 32.9978981-1.8557758 48.8163414-7.4231625 1.0339851-.3623524 2.1386261.2385654 2.218132 1.2371674.8748647 10.6487389 2.0679113 21.483078 3.6939107 32.167202z" fill="#50bbfe"/></g><g><path d="m43.6468887 70.9778137c.0000992.0024033-.000042-.0010834.0000572.0013199-7.9711418 2.2207565-16.9249477 3.0432587-24.2124615-1.291153-2.0991955-1.2608414-3.7314653-2.7812576-4.4372187-5.0651474 1.7954416 1.0498199 4.4272585.7562485 6.7214746.4826202 2.9009876-.3391342 5.5476074-.4595261 8.2256355-1.5138779.599678-.2360954 1.2785931.0095634 1.5143261.5484009.4036045.9225616.9373131 2.1583099 1.0556564 2.3222809 2.6267969 3.6394502 6.6239893 4.4910432 11.1325304 4.5155564z" fill="#50bbfe"/></g><g><g><path d="m35.8960686 27.5806961c-1.7176018-2.6424675-1.3614006-8.5772572-.8095703-11.6650391.0589066-.3298731.5502205-.2347651.4921875.0878906-.5616646 3.1450748-.9991341 9.6590843 1.25 11.9433594-.8251953-1.2626953-.8173828-3.1445313.0458984-4.3847656 1.4358063-2.0612717 4.6673737-1.7370338 5.4003906 1.3095703.1459999-2.2437477-.7065239-6.0086842-1.1513672-9.28125-.0452919-.3337383.4510002-.3820724.4960938-.0664063.4959106 3.6665268 1.408371 7.4090595 1.1103516 9.8535156-.3234901 2.6379528-1.8518906 3.9649181-3.4824219 4.0693359-1.1456261.0854951-2.4874687-.5401572-3.3515625-1.8662108zm1.3886718-3.7333984c-.7753906 1.1152344-.7451172 2.8984375.0673828 3.9765625.6816406.9052734 1.8730469 1.2324219 2.8496094.8505859 2.2314529-1.1202908 2.1568985-4.414423.3583984-5.5742188-1.0484847-.6766223-2.5165366-.3408698-3.2753906.7470704z"/></g></g><g><path d="m41.3101883 17.0317078c-1.9950256.6197815-4.161541.6862888-6.1912308.1917076-.8003922-.1950359-1.2515717-1.0536098-1.0080299-1.8406048.2551651-.8245649.5704117-1.620636 1.0718384-2.3296862.7818298-1.1055613 2.0743332-1.9510708 3.4221153-1.8206425 1.9731636.1909485 3.0230827 2.0615587 3.63451 3.9557428.2470513.76536-.1611671 1.6048833-.929203 1.8434831z" fill="#9e7ae6"/></g><g><g><path d="m74.6802521 56.6246414c-.7500305-2.4191895.8110733-6.9105911 1.9140625-9.1826172.1418381-.2976265.5949707-.0798073.4492188.21875-1.0553818 2.175415-2.655365 6.7089806-1.8300781 8.9785156-.1425781-1.0703125.2832031-2.2695313 1.1083984-2.9462891 1.4841614-1.2170677 3.8221283-.4632187 3.9550781 1.8867188.5052261-1.661541.6908798-4.6993713 1.0263672-7.0605469.0479279-.3355179.5402222-.2523003.4941406.0703125-.414917 2.9429779-.5289078 6.0131798-1.2900391 7.8300781-1.4580688 3.4753533-4.9563064 3.0124703-5.8271484.2050782zm1.9580078-2.5449219c-.8222656.6748047-1.1796875 2.0273438-.796875 3.0146484.3183594.8203125 1.1416016 1.3115234 1.9482422 1.2421875 1.916954-.3675919 2.5710297-2.8633842 1.4609375-4.1259766-.641449-.7273406-1.8129425-.7875594-2.6123047-.1308593z"/></g></g><g><path d="m81.1828384 49.6744232c-1.6686783.0430984-3.348999-.3764839-4.8022079-1.1977692-.5730591-.3238678-.7334366-1.0820732-.3751831-1.6342926.3753586-.5785828.7907181-1.1222 1.3303299-1.5584564.8413696-.6802177 2.0189056-1.0495224 3.0269012-.6563988 1.4757156.5755348 1.8765869 2.2419968 1.935173 3.8313141.0236741.6421776-.472618 1.199009-1.1150131 1.2156029z" fill="#ffc100"/></g><g><g><path d="m62.6978264 40.219368c-.1308594 0-.2412109-.1015625-.2490234-.2333984-.4941406-7.4873047-1.4599609-15.0224609-2.8710938-22.3945313-.0624275-.3213882.4284172-.4242458.4902344-.09375 1.4160156 7.3925781 2.3847656 14.9472656 2.8789063 22.4550781.0097656.1376953-.0947266.2568359-.2324219.265625-.0058594.0009766-.0117188.0009766-.0166016.0009766z"/></g></g><g><g><path d="m78.9585724 85.8834305 7.3369141-14.5019531c.1453323-.2929764.5961075-.0726776.4453125.2265625l-7.3369141 14.5019531c-.1477127.2921371-.5961914.0728302-.4453125-.2265625z"/></g></g><g><g><path d="m32.4790764 16.7965164-2.2089844-.4414063c-.3247795-.065424-.227026-.5560789.0976563-.4902344l2.2089844.4414063c.1357422.0273438.2236328.1582031.1962891.2939453-.0248643.1264-.1453858.2225056-.2939454.1962891z"/></g></g><g><g><path d="m32.1636467 15.0894852-2.0986328-1.5458984c-.2659168-.1959381.0298786-.5984554.296875-.4023438l2.0986328 1.5458984c.1113281.0820313.1347656.2382813.0527344.3496094-.081234.1104813-.238205.1350775-.3496094.0527344z"/></g></g><g><g><path d="m32.7603264 13.4840164c-.4970703-.7695313-.84375-1.6162109-1.0292969-2.5146484-.0273438-.1357422.0595703-.2675781.1943359-.2958984.5298882-.0970211.097374.7483883 1.2548828 2.5390625.1799889.2781648-.2408676.549201-.4199218.2714843z"/></g></g><g><g><path d="m82.483963 45.2271805.8837891-1.1054688c.2112961-.258255.5952148.0567627.390625.3125l-.8837891 1.1054688c-.2046203.2578201-.5973205-.0517883-.390625-.3125z"/></g></g><g><g><path d="m83.3404083 47.0230789c-.3271942 0-.3322372-.4907951-.0078125-.5.2945633-.0086937-1.0670853.0315819 2.8808594-.0849609.3271866 0 .3322296.4907951.0078125.5l-2.8730469.0849609c-.0029297 0-.0058593 0-.0078125 0z"/></g></g><g><g><path d="m85.640213 50.2418289-2.2089844-1.3242188c-.2821579-.1688309-.0320206-.5986061.2558594-.4296875l2.2109375 1.3242188c.2781143.1677895.0345688.5967636-.2578125.4296875z"/></g></g><g><path d="m54.2997017 44.2054749c1.0379295 1.2779312.8219376 2.6166611-.0459671 3.3215675-.867485.704567-2.047123.6010399-3.5389099-.3105774-3.0283623-1.9201698-5.5137749-3.5299454-7.4521255-4.8302383-2.8000298 1.5767822-5.4790726 3.5193634-7.5452881 5.9803848 1.3263474 4.2502327 2.0764542 7.104599 2.2514992 8.5645523.2620392 2.336998-.2572823 4.0312729-1.5555878 5.0857506-1.8568382 1.5081139-4.1047707.9861946-5.5464058-.7887955-1.1031094-1.3581848-1.5252056-3.2864494-1.2662907-5.7847977.2589149-2.4983444 1.2848701-4.8998108 3.0737591-7.2034836-4.7661953-13.6408348-6.6924019-15.7411118-4.9290943-17.1732578.8076077-.6559353 1.8229866-.6322937 3.0487823.0711994 1.3496914.8237724 8.0913906 5.1652832 12.9408207 8.2666321.9971161-.4196205 1.906311-.6490707 2.7211075-.6903534.8162575-.042469 1.3351517.0741692 1.5593338.3501892.3677025.4527283.3062057.8783607-.185955 1.2780914-.1767082.1435242-.7613792.3905525-1.7537384.7384453 3.0698624 2.0488548 4.8934402 3.1660576 5.4678116 3.353981.5772896.1855507.9768219.2537041 1.1974106.2030029.2203178-.0480537.4456596-.1316986.6763-.253582.4758911-.2556304.7710418-.3159904.8825378-.1787108zm-20.5010567 6.5048522c-1.0109253 1.5724449-1.6127434 3.2367744-1.8042603 4.9944458-.4317265 3.9899445 1.6792259 5.3015633 2.9230652 4.2913208 1.0836258-.8801116.7087441-3.9737892-1.1188049-9.2857666zm7.2905541-9.7945556c-6.7982864-4.5444641-10.3192368-6.7189789-10.5645866-6.5197105-.4497223.3652649 3.2876282 9.4828949 4.0879593 11.5836601 1.9623031-2.1863022 4.2399673-3.798275 6.4766273-5.0639496z" fill="#2d2d2d"/></g></g></g></svg>