<?xml version="1.0" encoding="UTF-8"?>
<!-- Generator: Adobe Illustrator 26.5.1, SVG Export Plug-In . SVG Version: 6.00 Build 0)  -->
<svg xmlns="http://www.w3.org/2000/svg" xmlns:xlink="http://www.w3.org/1999/xlink" version="1.1" id="Capa_1" x="0px" y="0px" viewBox="0 0 512 512" style="enable-background:new 0 0 512 512;" xml:space="preserve" width="512" height="512">
<g>
	<path style="fill:#FFFFFF;" d="M508.697,135.202l-13.535-17.944c2.331-3.274,3.718-7.265,3.718-11.582V29.644   c0-11.046-8.986-20.032-20.033-20.032h-9.095c-0.244,0-0.489,0.005-0.733,0.016c-0.241-0.011-0.489-0.016-0.744-0.016H256.036   c-11.045,0-20.031,8.986-20.031,20.032v2.736c-18.202-14.772-41.167-23.233-65.186-23.233c-17.154,0-34.186,4.396-49.256,12.712   c-47.877,26.423-66.38,86.979-42.084,136.098c-9.099,3.441-17.319,8.602-24.342,15.286l-8.437-7.86   c-3.046-2.836-7.04-4.394-11.162-4.394c-0.517,0-1.037,0.024-1.555,0.073c-4.662,0.445-8.911,2.864-11.673,6.647L3.151,193.95   c-4.844,6.633-4.024,15.83,1.917,21.503l25.967,24.796c0.189,6.294,0.789,13.038,1.83,20.708   c5.687,41.992,19.938,86.254,44.85,139.299c0.714,1.519,1.445,3.036,2.175,4.553l0.28,0.583   c17.691,47.081,51.611,97.462,84.681,97.462c1.806,0,3.607-0.149,5.299-0.437c1.389-0.232,2.672-0.533,3.901-0.917   c1.322-0.37,2.328-0.792,2.869-1.018c17.166-7.168,36.526-27,31.28-80.81c-1.145-11.412,2.314-22.863,9.49-31.419   c0.165-0.196,0.325-0.397,0.481-0.601c0.181-0.239,0.364-0.469,0.733-0.866c2.59-2.848,5.617-5.349,8.966-7.409l23.257-14.24   c0.43,0.529,0.845,1.067,1.349,1.548l37.459,35.77c1.758,2.21,4.096,3.978,6.827,5.079c1.951,0.786,4.004,1.166,6.046,1.166   c1.833,0,3.659-0.307,5.393-0.901c0.406-0.136,0.812-0.289,1.211-0.458c2.201-0.93,4.121-2.314,5.677-4.016l37.907-36.722   c5.938-5.753,6.658-15.026,1.679-21.626l-18.833-24.968c-1.226-1.626-2.741-2.973-4.434-4.026l18.388-11.258   c4.017-2.463,8.381-4.213,12.968-5.205c0.252-0.055,0.505-0.116,0.758-0.183c0.272-0.036,0.542-0.077,0.813-0.127   c2.4-0.435,4.854-0.655,7.291-0.655c5.585,0,10.993,1.118,16.097,3.332c20.766,8.974,39.577,13.524,55.911,13.524   c0.001,0,0.001,0,0.003,0c16.459,0,30.319-4.604,41.268-13.745c0.726-0.611,1.448-1.228,2.255-1.99l0.488-0.457   c17.864-17.131,14.874-48.4-8.402-88.08c-0.043-0.084-0.081-0.16-0.104-0.203c-2.992-5.757-6.357-11.558-10.04-17.379   l37.916-36.729C512.955,151.076,513.675,141.803,508.697,135.202z"/>
	<g>
		<g>
			<path style="fill:#2E1144;" d="M189.097,175.996l-12.726-25.013c-3.074-6.043-0.512-13.43,5.644-16.272h0     c5.654-2.609,12.363-0.441,15.421,4.983l13.797,24.478c3.355,5.953,1.045,13.503-5.067,16.559l-1.071,0.535     C199.22,184.204,192.076,181.85,189.097,175.996z"/>
			<g>
				<g>
					<g>
						<path style="fill:#2E1144;" d="M476.675,286.762c-0.151,0.147-0.336,0.31-0.487,0.457c-0.487,0.458-0.988,0.879-1.49,1.301        c-21.427,17.889-56.33,7.975-80.114-2.304c-10.452-4.533-21.885-5.732-32.798-3.759c-0.725,0.091-1.383,0.239-2.078,0.402        l-0.035,0.015c-6.297,1.359-12.44,3.798-18.073,7.252l-121.915,74.645c-4.719,2.903-8.936,6.402-12.536,10.363        c-0.586,0.626-1.121,1.273-1.641,1.956c-9.957,11.871-14.846,27.557-13.239,43.58c2.415,24.754,0.461,54.976-21.295,64.062        c-0.397,0.165-0.757,0.316-1.184,0.41c-0.628,0.219-1.287,0.368-1.96,0.48c-40.161,6.815-123.648-149.458-68.472-224.11        c56.699-76.687,203.214-132.709,243.947-138.662C403.121,114.096,510.652,254.182,476.675,286.762z"/>
					</g>
					<g>
						<g>
							<g>
								<path style="fill:#B179FF;" d="M202.673,332.258c0.261,14.424,1.756,28.757,4.475,42.876          c-0.586,0.626-1.121,1.273-1.641,1.956c-2.887-14.725-4.53-29.717-4.817-44.809L202.673,332.258z"/>
							</g>
						</g>
						<g>
							<g>
								<path style="fill:#B179FF;" d="M361.786,282.458c-0.725,0.091-1.383,0.239-2.078,0.402l-0.035,0.015          c-8.263-10.956-17.507-21.12-27.69-30.384l1.343-1.451C343.803,260.605,353.322,271.12,361.786,282.458z"/>
							</g>
						</g>
						<g>
							<g>
								<path style="fill:#FF93E2;" d="M169.789,485.142c-0.628,0.219-1.287,0.368-1.96,0.48l-12.175-21.949l1.693-0.918          L169.789,485.142z"/>
							</g>
						</g>
						<g>
							<g>
								<path style="fill:#FF93E2;" d="M476.188,287.22c-0.487,0.458-0.988,0.879-1.49,1.301          c-5.44-9.169-11.649-17.847-18.582-25.926l1.454-1.286C464.504,269.389,470.748,278.051,476.188,287.22z"/>
							</g>
						</g>
					</g>
					<path style="fill:#B179FF;" d="M472.669,263.157c-2.886,5.899-8.047,10.452-13.915,13.37       c-15.966,7.887-35.107,3.751-52.003-1.795c-16.929-5.579-34.37-12.536-51.972-9.747c-12.664,2.02-23.982,8.913-34.883,15.646       c-32.991,20.423-65.95,40.814-98.941,61.205c-10.997,6.797-22.443,14.043-28.983,25.2       c-13.786,23.437-1.154,54.472-10.388,80.057c-3.751,10.292-12.344,19.942-23.309,20.519       c-8.881,0.417-16.929-5.066-23.437-11.093c-18.82-17.41-31.035-40.654-41.936-63.867       c-20.102-42.802-37.095-87.656-43.443-134.529c-1.988-14.652-2.918-29.689,0.513-44.084       c5.29-22.09,21.513-38.794,43.572-43.764c11.221-2.533,22.956-2.693,34.242-0.545c5.643,1.058,11.189,2.725,16.48,4.937       c1.347,0.577,12.953,7.374,13.241,7.182c2.052-1.475,4.136-2.917,6.22-4.328c0.449-0.321,0.898-0.641,1.347-0.93       c19.686-13.498,40.237-25.713,61.494-36.582c0.513-0.257,1.026-0.545,1.539-0.77c1.347-0.705,2.693-1.379,4.04-2.052       c-7.021-23.213,5.643-50.689,27.861-60.436c23.02-10.099,51.907-3.206,73.645,9.394c20.776,12.055,38.121,25.136,56.203,40.942       c29.048,25.457,57.422,56.717,75.12,90.766c1.699,3.238,3.27,6.54,4.713,9.907       C474.592,238.982,478.023,252.159,472.669,263.157z"/>
					<g>
						<g>
							<path style="fill:#FFE7DE;" d="M326.586,132.48c4.449,7.854,1.688,17.828-6.166,22.276         c-7.854,4.449-17.828,1.688-22.277-6.166c-4.449-7.854-1.688-17.827,6.166-22.276         C312.164,121.865,322.137,124.625,326.586,132.48z"/>
							<path style="fill:#FFE7DE;" d="M373.864,146.318c4.449,7.854,1.688,17.827-6.166,22.276         c-7.854,4.449-17.828,1.688-22.276-6.166c-4.45-7.854-1.689-17.828,6.166-22.277         C359.441,135.703,369.415,138.463,373.864,146.318z"/>
							<path style="fill:#FFE7DE;" d="M368.092,194.324c4.449,7.854,1.688,17.828-6.166,22.277         c-7.854,4.449-17.827,1.688-22.276-6.166c-4.449-7.854-1.689-17.827,6.166-22.276         C353.669,183.71,363.643,186.47,368.092,194.324z"/>
							<path style="fill:#FFE7DE;" d="M320.483,183.728c4.449,7.854,1.688,17.828-6.166,22.276         c-7.854,4.449-17.827,1.688-22.276-6.166c-4.449-7.854-1.689-17.828,6.165-22.277         C306.061,173.113,316.034,175.874,320.483,183.728z"/>
						</g>
					</g>
					<g>
						<g>
							<path style="fill:#2E1144;" d="M444.602,213.243c5.967,14.29-0.778,30.711-15.067,36.678         c-14.288,5.968-30.71-0.778-36.677-15.066c-5.968-14.289,0.778-30.711,15.067-36.678         C422.214,192.208,438.635,198.955,444.602,213.243z"/>
						</g>
						<g>
							<path style="fill:none;stroke:#FF93E2;stroke-width:1.6031;stroke-miterlimit:10;" d="M440.12,215.115         c4.933,11.814-0.643,25.39-12.457,30.323c-11.813,4.934-25.389-0.643-30.322-12.456         c-4.934-11.813,0.643-25.389,12.456-30.322C421.61,197.725,435.186,203.303,440.12,215.115z"/>
						</g>
						<g>
							<g>
								<path style="fill:#2E1144;" d="M170.347,372.02c6.366,15.242-0.83,32.76-16.072,39.125          c-15.242,6.367-32.759-0.829-39.125-16.072c-6.366-15.242,0.83-32.759,16.072-39.125          C146.464,349.582,163.982,356.778,170.347,372.02z"/>
							</g>
							<g>
								<path style="fill:none;stroke:#FF93E2;stroke-width:1.6031;stroke-miterlimit:10;" d="M164.583,374.427          c5.036,12.059-0.656,25.918-12.715,30.954c-12.059,5.037-25.917-0.656-30.954-12.715          c-5.036-12.059,0.657-25.917,12.715-30.954C145.688,356.676,159.547,362.368,164.583,374.427z"/>
							</g>
						</g>
						<g>
							<g>
								<path style="fill:#2E1144;" d="M158.858,249.449c8.525,20.413-1.111,43.872-21.524,52.397          c-20.413,8.526-43.871-1.111-52.397-21.524c-8.525-20.412,1.112-43.872,21.524-52.397          C126.874,219.4,150.333,229.036,158.858,249.449z"/>
							</g>
							<g>
								<path style="fill:none;stroke:#FF93E2;stroke-width:2.1469;stroke-miterlimit:10;" d="M151.139,252.673          c6.745,16.149-0.879,34.71-17.029,41.453c-16.15,6.746-34.708-0.879-41.454-17.029          c-6.745-16.149,0.879-34.709,17.029-41.453C125.835,228.9,144.394,236.524,151.139,252.673z"/>
							</g>
						</g>
					</g>
					<g>
						<path style="fill:#2E1144;" d="M212.106,179.22l-8.336,4.617c-4.97,2.725-10.452,4.072-15.87,4.072        c-8.015,0-15.935-2.917-22.122-8.528l-2.052-1.86c0.449-0.321,0.898-0.641,1.347-0.93l1.763,1.603        c9.907,8.977,24.431,10.708,36.165,4.232l8.304-4.617c10.965-6.06,17.249-18.019,15.999-30.49l-0.737-7.31        c0.513-0.257,1.026-0.545,1.539-0.77l0.802,7.919C230.22,160.272,223.616,172.84,212.106,179.22z"/>
					</g>
				</g>
				<polygon style="fill:#FFC666;" points="202.159,293.446 200.104,266.914 215.103,286.095 240.139,277.76 227.282,297.415       239.611,315.336 216.196,308.59 204.536,331.278 201.221,307.417 179.752,306.844     "/>
				<polygon style="fill:#FFC666;" points="286.314,248.84 284.259,222.308 299.258,241.489 324.294,233.154 311.437,252.809       323.766,270.73 300.351,263.984 288.691,286.672 285.376,262.811 263.907,262.238     "/>
				<polygon style="fill:#2E1144;" points="178.108,213.861 199.391,249.878 276.884,207.858 254.509,170.748     "/>
			</g>
			<g>
				<g>
					<path style="fill:#FF86B2;" d="M129.841,35.563c-41.265,22.774-56.392,74.686-34.25,116.588l52.436-28.939       c-6.023-12.662-4.126-34.112,8.205-40.917c12.33-6.805,30.57,3.531,38.073,15.376l52.436-28.939       C223.091,27.661,171.106,12.789,129.841,35.563z"/>
					<path style="fill:#FFAFA0;" d="M135.001,44.912c-36.154,19.953-49.424,65.394-30.124,102.113l43.15-23.814       c-6.023-12.662-4.22-33.099,8.111-39.904c12.33-6.805,30.664,2.518,38.167,14.363l43.15-23.814       C216.675,37.954,171.155,24.959,135.001,44.912z"/>
					<path style="fill:#FFC666;" d="M140.768,55.361c-30.442,16.801-41.66,55.002-25.571,85.969l32.83-18.119       c-6.023-12.662-4.128-32.988,8.203-39.793c12.331-6.805,30.572,2.407,38.075,14.252l32.816-18.111       C209.497,49.439,171.21,38.56,140.768,55.361z"/>
					<path style="fill:#00DBDA;" d="M147.523,67.601c-23.739,13.102-32.566,42.827-20.177,67.024l20.681-11.414       c-6.023-12.662-3.651-31.513,8.679-38.318c12.33-6.805,30.096,0.932,37.599,12.777l20.681-11.414       C201.117,62.876,171.263,54.499,147.523,67.601z"/>
					<path style="fill:#2E1144;" d="M153.679,78.755c-17.637,9.734-24.261,31.731-15.273,49.766l9.622-5.31       c-6.023-12.662-1.309-27.921,11.022-34.726c12.33-6.805,27.753-2.66,35.256,9.185l9.621-5.31       C193.459,75.142,171.316,69.021,153.679,78.755z"/>
				</g>
				
					<line style="fill:none;stroke:#2E1144;stroke-width:3.2061;stroke-miterlimit:10;" x1="156.776" y1="83.964" x2="192.569" y2="154.376"/>
			</g>
		</g>
		<g>
			<path style="fill:#FF93E2;" d="M457.419,181.79l38.567-37.362l-18.834-24.969L457.1,136.605l-19.768-18.415l-19.159,26.239     l38.998,37.24c0.008,0.209,0.014,0.349,0.014,0.349l0.175-0.169l0.056,0.053C457.415,181.902,457.417,181.853,457.419,181.79z"/>
			<path style="fill:#FF93E2;" d="M303.397,391.566l38.567-37.362l-18.834-24.969l-20.052,17.146l-19.768-18.415l-19.159,26.239     l38.998,37.24c0.008,0.209,0.014,0.349,0.014,0.349l0.175-0.169l0.056,0.053C303.394,391.677,303.396,391.628,303.397,391.566z"/>
			<path style="fill:#FF93E2;" d="M55.988,240.332l38.567-37.362l-18.834-24.969L55.67,195.147l-19.768-18.415l-19.159,26.239     l38.998,37.24c0.008,0.209,0.014,0.349,0.014,0.349l0.175-0.169l0.056,0.053C55.985,240.444,55.986,240.395,55.988,240.332z"/>
		</g>
		<g>
			<g>
				<g>
					<g>
						<g>
							<path style="fill:#B179FF;" d="M479.212,25.353h-9.096L280.734,49.609c-2.018,0-0.311-0.774-0.311,1.244l4.975,42.914         c0,2.018-1.396,0,0.622,0l183.162,14.927h10.029c2.018,0,3.654-1.636,3.654-3.654V29.007         C482.865,26.989,481.229,25.353,479.212,25.353z"/>
						</g>
						<g>
							<path style="fill:#FFE7DE;" d="M468.638,25.353H256.4c-2.018,0-3.654,1.636-3.654,3.654v76.033         c0,2.018,1.636,3.654,3.654,3.654h212.238c2.018,0,3.654-1.636,3.654-3.654V29.007         C472.292,26.989,470.656,25.353,468.638,25.353z"/>
						</g>
					</g>
				</g>
			</g>
			<g>
				<g>
					<path style="fill:#2E1144;" d="M305.943,56.255c0,1.835-0.4,3.639-1.198,5.405c-0.8,1.769-1.861,3.357-3.187,4.767       c-1.326,1.412-2.839,2.567-4.538,3.468c-1.699,0.901-3.449,1.402-5.251,1.504c-0.035,0.612-0.06,1.386-0.076,2.32       c-0.017,0.934-0.077,1.911-0.179,2.931c-0.103,1.02-0.247,2.041-0.433,3.06c-0.188,1.02-0.46,1.937-0.816,2.752       c-0.357,0.816-0.817,1.479-1.377,1.989c-0.561,0.51-1.25,0.765-2.066,0.765c-0.952,0-1.707-0.314-2.268-0.944       c-0.561-0.629-0.986-1.383-1.274-2.269c-0.289-0.884-0.485-1.81-0.586-2.779c-0.103-0.969-0.171-1.793-0.204-2.472       c-0.069-0.986-0.111-1.954-0.128-2.907c-0.017-0.95-0.025-1.919-0.025-2.906c0-0.441,0-1.266,0-2.474       c0-1.206,0.008-2.582,0.025-4.129c0.017-1.546,0.043-3.161,0.076-4.843c0.035-1.683,0.085-3.247,0.153-4.692       c0.068-1.445,0.144-2.676,0.229-3.696c0.085-1.021,0.196-1.614,0.332-1.785c0.033-0.033,0.136-0.111,0.307-0.231       c0.169-0.119,0.356-0.237,0.56-0.356c0.204-0.119,0.391-0.229,0.561-0.332c0.169-0.101,0.289-0.169,0.357-0.204       c1.563-0.884,3.28-1.649,5.15-2.294c1.869-0.646,3.721-0.969,5.557-0.969c1.563,0,2.983,0.315,4.258,0.942       c1.274,0.63,2.362,1.462,3.263,2.499c0.901,1.037,1.589,2.243,2.065,3.62S305.943,54.794,305.943,56.255z M297.123,57.427       c0-0.68-0.161-1.274-0.485-1.785c-0.323-0.509-0.858-0.765-1.606-0.765c-0.645,0-1.292,0.128-1.937,0.383       c-0.646,0.256-1.242,0.518-1.785,0.79c0.101,1.19,0.195,2.346,0.28,3.468c0.085,1.121,0.093,2.278,0.025,3.467       c0.544-0.272,1.138-0.586,1.785-0.944c0.645-0.357,1.241-0.756,1.785-1.198c0.544-0.441,1.002-0.942,1.377-1.503       C296.935,58.779,297.123,58.142,297.123,57.427z"/>
					<path style="fill:#2E1144;" d="M336.709,76.548c0,0.85-0.349,1.649-1.045,2.396c-0.697,0.748-1.598,1.427-2.702,2.039       c-1.106,0.612-2.338,1.147-3.697,1.606c-1.359,0.459-2.702,0.85-4.028,1.173c-1.326,0.323-2.575,0.569-3.748,0.74       c-1.173,0.169-2.099,0.255-2.779,0.255c-0.645,0-1.334-0.06-2.065-0.179c-0.732-0.12-1.334-0.382-1.81-0.79       c-0.273-0.204-0.51-0.662-0.714-1.377c-0.204-0.713-0.4-1.563-0.587-2.55c-0.187-0.985-0.348-2.047-0.484-3.187       c-0.136-1.138-0.247-2.251-0.332-3.339c-0.085-1.088-0.152-2.091-0.204-3.008c-0.051-0.918-0.076-1.631-0.076-2.142       c0-0.849,0.025-1.878,0.076-3.084c0.052-1.206,0.128-2.499,0.229-3.876c0.103-1.377,0.239-2.779,0.408-4.206       c0.171-1.427,0.365-2.779,0.586-4.053c0.221-1.276,0.493-2.422,0.816-3.441c0.324-1.02,0.672-1.818,1.046-2.396       c0.645-0.918,1.461-1.377,2.447-1.377c0.68,0,1.257,0.229,1.734,0.688c0.475,0.46,0.857,1.054,1.146,1.785       c0.289,0.732,0.51,1.547,0.664,2.447c0.152,0.901,0.263,1.794,0.331,2.678c0.068,0.884,0.103,1.699,0.103,2.447       c0,0.748,0,1.343,0,1.785c0,2.651-0.06,5.277-0.179,7.877c-0.12,2.6-0.179,5.226-0.179,7.878v1.989       c1.53-0.476,3.195-0.926,4.997-1.352c1.802-0.425,3.519-0.637,5.15-0.637c0.577,0,1.163,0.033,1.759,0.101       c0.594,0.069,1.121,0.213,1.581,0.433c0.458,0.223,0.832,0.545,1.121,0.969C336.565,75.265,336.709,75.834,336.709,76.548z"/>
					<path style="fill:#2E1144;" d="M368.953,76.038c0,0.681-0.059,1.497-0.177,2.447c-0.12,0.953-0.349,1.862-0.689,2.728       c-0.34,0.866-0.798,1.598-1.377,2.193c-0.579,0.594-1.344,0.893-2.294,0.893c-1.258,0-2.202-0.46-2.83-1.377       c-0.63-0.918-1.08-2.014-1.352-3.289c-0.273-1.274-0.433-2.575-0.485-3.9c-0.051-1.326-0.093-2.379-0.127-3.161       c-2.447,0.408-4.862,0.765-7.24,1.07c-0.069,0.782-0.213,1.751-0.435,2.907c-0.221,1.156-0.56,2.269-1.02,3.34       c-0.458,1.07-1.054,1.997-1.785,2.778c-0.73,0.782-1.623,1.173-2.676,1.173c-0.816,0-1.453-0.297-1.913-0.892       c-0.459-0.594-0.808-1.301-1.045-2.117c-0.238-0.816-0.383-1.657-0.433-2.523c-0.051-0.868-0.076-1.589-0.076-2.167       c0-1.938,0.152-3.849,0.458-5.737c0.305-1.886,0.662-3.764,1.07-5.634c0.204-0.986,0.476-2.142,0.816-3.467       c0.34-1.326,0.757-2.694,1.25-4.105c0.492-1.41,1.07-2.804,1.733-4.181c0.664-1.377,1.419-2.608,2.27-3.696       c0.849-1.088,1.818-1.971,2.906-2.652c1.088-0.68,2.295-1.02,3.62-1.02c1.292,0,2.414,0.289,3.365,0.868       c0.952,0.579,1.785,1.342,2.499,2.294c0.713,0.952,1.307,2.031,1.785,3.237c0.475,1.208,0.874,2.431,1.198,3.672       c0.322,1.241,0.593,2.455,0.816,3.645c0.22,1.19,0.416,2.243,0.586,3.161c0.441,2.21,0.816,4.444,1.121,6.704       C368.801,71.493,368.953,73.761,368.953,76.038z M359.112,63.648c0-0.408-0.025-1.078-0.076-2.014       c-0.051-0.934-0.163-1.869-0.332-2.804c-0.171-0.934-0.433-1.767-0.79-2.498s-0.841-1.097-1.453-1.097       c-0.34,0-0.662,0.229-0.969,0.689c-0.305,0.458-0.579,1.037-0.816,1.733c-0.239,0.697-0.451,1.471-0.637,2.32       c-0.188,0.85-0.349,1.666-0.485,2.447c-0.136,0.782-0.237,1.487-0.305,2.117c-0.069,0.629-0.12,1.079-0.153,1.351       c2.039-0.171,4.045-0.425,6.016-0.765V63.648z"/>
					<path style="fill:#2E1144;" d="M398.904,48.506c0,1.495-0.196,3.144-0.586,4.945c-0.392,1.802-0.893,3.62-1.505,5.457       c-0.612,1.835-1.274,3.62-1.989,5.353c-0.713,1.734-1.377,3.264-1.989,4.589c-0.34,0.749-0.757,1.691-1.249,2.83       c-0.493,1.14-1.045,2.355-1.657,3.647c-0.612,1.292-1.267,2.592-1.963,3.9c-0.697,1.309-1.419,2.482-2.167,3.519       c-0.748,1.036-1.513,1.886-2.294,2.55c-0.782,0.662-1.565,0.994-2.346,0.994c-1.089,0-1.861-0.401-2.32-1.198       c-0.458-0.8-0.688-1.691-0.688-2.678c0-0.952,0.161-1.963,0.484-3.034c0.323-1.07,0.73-2.132,1.224-3.187       c0.493-1.053,1.037-2.073,1.633-3.059c0.593-0.986,1.146-1.87,1.657-2.652c-0.681-0.169-1.344-0.474-1.989-0.917       c-0.646-0.441-1.122-0.969-1.427-1.581c-0.544-1.189-1.105-2.532-1.683-4.028c-0.578-1.495-1.096-3.016-1.554-4.564       c-0.46-1.546-0.842-3.092-1.148-4.64c-0.307-1.546-0.458-2.965-0.458-4.258c0-0.612,0.067-1.282,0.204-2.014       c0.135-0.73,0.364-1.41,0.688-2.039c0.323-0.628,0.748-1.154,1.274-1.581c0.526-0.424,1.181-0.637,1.963-0.637       c0.884,0,1.665,0.332,2.346,0.994c0.68,0.662,1.282,1.505,1.81,2.524c0.527,1.02,0.977,2.159,1.352,3.416       c0.373,1.258,0.696,2.498,0.969,3.721c0.271,1.225,0.492,2.346,0.662,3.365c0.169,1.02,0.323,1.819,0.458,2.396       c0.136-0.509,0.365-1.282,0.689-2.319c0.323-1.037,0.713-2.185,1.173-3.443c0.458-1.257,0.985-2.548,1.579-3.875       c0.594-1.326,1.225-2.532,1.887-3.62c0.662-1.088,1.367-1.979,2.115-2.676c0.748-0.697,1.513-1.046,2.295-1.046       c0.509,0,0.934,0.188,1.274,0.561c0.34,0.375,0.604,0.816,0.79,1.326c0.187,0.509,0.315,1.037,0.383,1.581       C398.869,47.673,398.904,48.131,398.904,48.506z"/>
				</g>
				<polygon style="fill:#2E1144;" points="422.233,46.261 422.233,82.502 448.019,61.594     "/>
			</g>
		</g>
	</g>
</g>















</svg>
