<svg id="Layer_1" enable-background="new 0 0 100 100" height="512" viewBox="0 0 100 100" width="512" xmlns="http://www.w3.org/2000/svg"><g id="Alarm_Clock"><g><g><path d="m86.0177536 15.1396284c-.4182663-.2602129-.8665161-.4662952-1.3355484-.6240826 1.7905273-9.7162075-9.1602631-15.6545105-16.7615738-9.2179146-3.3219452-.2551421-7.1980514.225834-10.5907822 1.5627771-.8870392-.9637423-2.0718575-1.6596837-3.4453049-1.9329658-2.1568108-1.7051187-5.0501823-1.792788-7.2816849-.4179473-.0002136 0-.0004272 0-.0004272 0-1.5830231 0-3.1539421.5796351-4.4009209 1.7790332-2.2989235-.701695-4.7375183-1.0343642-7.2660522-.9159393-.9877357-1.0969644-2.2196274-1.9754779-3.621994-2.5648658-7.063839-2.971487-15.0274162 2.6096432-14.1181126 10.5920649-1.1338005.1542006-2.1883593.6157846-3.0775814 1.3229113-2.0883446.2946939-3.9434605 1.6289549-4.8892221 3.6061468-1.7195044 3.681673-1.4730282 8.5354404 2.1994963 10.6580276.6677732.9881668 1.6030416 1.7699852 2.699791 2.2530384.4078798 2.7758465 2.24893 4.9503765 4.5274944 5.8118534.0291271.0128517.0582523.0256996.0882359.0385513-3.9458151 5.9885406-6.1328897 12.9395523-6.1697264 19.9779396-.0473309 9.063076 3.3894091 17.3734016 9.3863039 23.5360603-1.126255 1.8640594-1.2714844 3.8894806-.6711998 5.7728271-2.9393635 5.0593643 1.29286 10.9666214 6.9944839 10.3345261 3.3222961 2.2960815 8.0813522 1.5628281 10.788887-2.4751282.3649406-.236763.6926155-.5188751.9963036-.8235321 2.3856087-.1459503 4.7742157-.9803467 6.7556877-2.369278.1156502.0012894.52771.0012894.52771.0012894 2.8467102-.01371 5.7045555-.3478088 8.522995-1.0001602.1867561-.044548.3726501-.0899506.5568352-.1362076 1.3740959 1.6225281 3.3787003 2.5481567 5.5409317 2.5481567 3.0077667 0 5.6917114-1.7762985 6.8379288-4.5274963l2.1134033-5.078331c8.6078033-6.6194763 13.9919662-16.2621384 14.8572006-26.7357674.044548-.5495529.0719604-1.1008224.0882416-1.6430931.0119934-.3538017.0145645-.7058945.015419-1.0768318l-.0008545-.2402954c-.0248489-5.3374748-1.2987137-10.5841408-3.6579742-15.2594109 1.8262024-1.3879089 3.2846756-3.2628899 4.0229111-5.0809555 1.4235687-.6715202 2.5734329-1.8543644 3.1786728-3.3228016 1.0457764-.896986 1.8105698-2.1295185 2.1061172-3.5587616.4266205-2.110405.339241-4.289341-.2544327-6.3037968-.7129594-2.4124871-2.8133012-4.1581088-5.2616578-4.4896403z" fill="#fff"/></g><g><g><g><g><path d="m57.933651 81.805336c1.0399361 1.3810425 2.092926 2.7490082 3.1587982 4.1037598.5295677.6730957 1.7090874.4772034 2.0486679-.3389587l3.2371864-7.7804031" fill="#2d2d2d"/></g></g></g><g><g><g><g><path d="m36.3550072 30.2651176c.2060165-.0978603.4100494-.2005253.611866-.3078766.8314552-.4422684 1.0473404-1.5193539.4765739-2.1876392-1.0516243-1.2313023-2.1173172-2.6515617-2.7996674-4.1502666-.7442741.1963768-1.4619904.524353-2.1092949.9635258-.1393661.094553-.2805901.1998653-.3615646.3480377-.1433372.2622852-.0567932.5805092.0881767.8218842.7830887 1.3038483 1.4986572 2.6445789 2.2344627 3.9780941.3500215.6343478 1.159382.8667831 1.8594476.5342406z" fill="#f7e69c"/></g></g></g><g><g><g><path d="m79.6599579 55.6233559c-.9483185 11.489872-8.4456482 21.2612114-18.4562263 26.0573158-1.2383423.6001282-2.5245361 1.1262283-3.8351173 1.5579834-18.857357 6.4224396-38.7591896-6.1583481-38.6542549-26.1385002.0870686-16.5786095 14.1180153-30.7075253 31.1653137-31.4779282 10.1215286-.4574127 19.8223228 4.0691967 25.0993462 12.0660019 3.3910979 5.1388855 5.1964568 11.6891098 4.6809386 17.9351273z" fill="#508def"/></g></g></g><g><g><g><path d="m79.6599579 55.6233559c-.9483185 11.489872-8.4456482 21.2612114-18.4562263 26.0573158-1.2383423.6001282-2.5245361 1.1262283-3.8351173 1.5579834 3.2510033-2.1258698 6.0769806-4.9190369 8.2394257-8.1059113 4.023468-5.9446945 5.7944489-13.1404152 5.48983-20.1283607-.2438736-5.8593102-1.9634781-11.6955223-5.6543961-16.207283-4.5266838-5.5257759-11.7888527-8.6310406-19.2947273-8.7720661-5.9836578-.1083546-11.9902458 1.585083-17.2861137 4.5294857.0814247-.0834427.1628761-.1668434.2441463-.2389259 10.2960873-9.1320324 25.0512562-11.3302364 36.6968994-4.9585629 1.6843491.9215546 3.2617645 2.0098991 4.6960678 3.2514744 6.536127 5.6578712 9.8756274 14.3469123 9.1602115 23.0148506z" fill="#2c74e1"/></g></g></g><g><g><g><path d="m64.5704956 65.1606979c-.6176109 4.9842453-2.7605057 9.5291672-6.2131729 12.8504028-9.6684837 9.4567108-26.6770592 6.2005005-34.7775726-7.4301376-6.8434639-11.5339661-4.3681278-25.9943581 5.918272-32.2402267 16.2057247-9.7992993 37.5488987 6.9916077 35.0724735 26.8199615z" fill="#f3f3f5"/></g></g></g><g><g><g><path d="m80.6157455 30.3780499c-.4833374 1.4363461-2.5954666 3.4627934-4.0842514 3.5441685-4.9442673.2625046-9.7853546-.7469177-13.9183121-2.9224205-4.0983276-2.1532593-7.5079803-5.4650707-9.7987366-9.5015259-.1429596-.2689342-.2379951-.5403118-.2726707-.8268528-.1453438-1.0029087.3602219-2.088829.9614677-3.1345882 2.6611748-4.584672 8.2852364-6.155261 12.7371292-6.1626387 5.3064957-.0275316 10.2273636 2.7450628 12.6961365 7.1241426.5657654 1.0005856 1.054039 2.0275402 1.4411774 3.0695515 1.0245514 2.76898 1.2921753 5.6762905.23806 8.8101635z" fill="#ffc100"/></g></g></g><g><g><g><path d="m75.886261 8.8824129c2.8057098.789073 4.1978455 4.8967485.9819412 7.0594912-2.5185623 1.6937656-6.1133118.5151901-6.5668182-2.3281727-.4501953-2.8225784 3.0092468-5.4556837 5.584877-4.7313185z" fill="#010101"/></g></g></g><g><g><g><g><path d="m45.5461502 17.300705c-1.7756844 1.7854309-6.1747398 4.9604301-11.4674568 7.9731674-7.0751038 4.0394192-13.0348415 6.6345215-13.426033 5.869812-.0112743-.0110321-.0111027-.0340576-.010931-.0570831-.1524067-.8797512 5.0953636-4.6590137 12.0007191-8.6337414 7.214035-4.1417809 12.2270966-8.7858295 13.7158279-6.4503651.1844749.2887764-.5705567 1.0558643-.8121262 1.2982102z" fill="#e5ab05"/></g></g></g><g><g><g><path d="m46.3894539 16.1219254c-.0088463.2302723-.310894.644659-.8433037 1.1787796-8.6022949 2.8058357-16.9469471 7.9671478-23.7792416 13.6807652-.3434792.302103-.6968575.489418-1.0243797.284853-.2146931-.117363-.4727364-.5204983-.5273972-.8174248-.9851208-6.300312 2.3120899-13.5196457 8.0344124-16.8910255 5.7871189-3.4221916 13.3909016-2.5053473 17.8770046 1.9481564.1725159.1727217.2597848.3861168.2629052.6158961z" fill="#ffc100"/></g></g></g><g><g><g><path d="m23.5785713 10.5743532c.8005638-1.8764782 3.1718292-3.0231552 5.3536663-2.106658.8910255.3742809 1.6437931 1.0551414 2.0574303 1.9503374 1.2139606 2.627264-.8512573 6.4054956-3.8671741 6.2988844-2.6835156-.0948619-4.6621171-3.521492-3.5439225-6.1425638z" fill="#010101"/></g></g></g></g><g><g><g><path d="m80.6157455 30.3780499c-.4833374 1.4363461-2.5954666 3.4627934-4.0842514 3.5441685-4.9442673.2625046-9.7853546-.7469177-13.9183121-2.9224205-4.0983276-2.1532593-7.5079803-5.4650707-9.7987366-9.5015259-.1429596-.2689342-.2379951-.5403118-.2726707-.8268528.1380043-.1388226.3447762-.2089424.654541-.1759434.4761963.0610352 1.0301857.5029278 1.4642448.6982327.5049438.2159653 1.0105515.4199104 1.5294914.599226 2.1117554.7401066 4.3636818 1.1625404 6.6572952 1.3558559 1.2759209.0969563 2.5816383.1326427 3.8817787.096468 4.4988632-.0995598 9.0632248-.8919277 13.6485596-1.677372 1.0245515 2.76898 1.2921754 5.6762905.2380601 8.8101635z" fill="#e5ab05"/></g></g></g><g opacity=".7"><g><g><path d="m59.3408279 46.0124207c-7.5607605-5.7720337-15.9985046-9.9092979-24.9396095-7.1581879-4.8840199 1.4548149-8.5646076 5.1990814-10.0267239 10.8600922-.6491489 2.579052-.8421402 5.2721443-.6316051 7.9301453.6930103 8.8336945 6.0616512 17.0620956 14.1760139 20.6938248 6.1932373 2.7720413 13.939167 2.631691 20.4131126-.2982559.0350914-.0175476.0614052-.0263138.0964966-.0438614-10.0052223 9.6602173-26.860321 5.8900375-34.7821198-7.43013-8.693552-14.6564331-1.9236431-32.1606331 12.4127865-34.7207069 5.82761-1.0979576 12.4020271.7071533 15.5532646 3.0615273 2.1527328 1.5069122 3.5864105 2.3571968 5.807251 4.8159866.0887413.101162 1.360775 1.5542946 1.3772507 1.57901z" fill="#e3e2e7"/></g></g></g></g><g><g><g><path d="m35.0431595 46.786747c-.0532837 2.0761833-1.0018501 3.7771378-2.1173782 3.8089104-1.1138172.0317268-1.9811115-1.6128387-1.9385109-3.6829071.0428238-2.0808754.9880161-3.8064003 2.1125221-3.844265 1.126255-.0379296 1.9969253 1.6312103 1.943367 3.7182617z" fill="#2d2d2d"/></g></g></g><g><g><g><path d="m53.577446 47.2455864c-.1027069 2.098774-1.1131439 3.8178444-2.2557526 3.8495903-1.1408348.0317001-1.9905319-1.6309166-1.899025-3.7234421.0919914-2.1035728 1.0995102-3.8477707 2.2515564-3.885746 1.1538582-.0380363 2.0064736 1.6497078 1.9032212 3.7595978z" fill="#2d2d2d"/></g></g></g><g><g><g><g><path d="m41.4433861 59.4899445 12.554039-.2788697.0631447-1.2573471-13.3386536.3076973" fill="#010101"/></g></g></g><g><g><g><path d="m53.2078972 60.6376305-.0805931-4.0669556c-.0020218-.1020737.1179008-.1717415.2056808-.1194649l2.818615 1.6786385c.0706367.0420685.0752106.1397934.0092468.1973305l-2.7384148 2.3885536c-.0838127.073101-.2124671.0262604-.2145347-.0781021z" fill="#010101"/></g></g></g></g><g><g><g><g><path d="m40.8840561 57.2636871.6008186-8.5205574-.9136314.0058976-.6262894 9.0315933" fill="#010101"/></g></g></g><g><g><g><path d="m42.423645 49.3045349-2.9699173.0571251c-.0740089.0014267-.1124573-.0795631-.0659409-.138916l1.4990425-1.9128723c.0377045-.0481148.1093445-.0516243.1446571-.0070839l1.4710846 1.8556633c.0451852.0569916-.0021628.1446075-.078926.1460838z" fill="#010101"/></g></g></g></g><g><g><g><path d="m55.7809067 71.3925552c-.1522942 2.8563843-3.1803894 4.8629227-6.2044716 4.8950653-3.2719841.0347748-5.8288956-2.0793991-5.7285194-4.7290802.1010742-2.6680527 2.8553047-4.887413 6.1694107-4.9444962 2.2404022-.0385895 4.1633987.9375992 5.1080627 2.4000626.4618263.6979905.701519 1.5156861.6555176 2.3784485z" fill="#2d2d2d"/></g></g></g><g><g><g><path d="m40.4876289 74.6428757c1.1298981-.8929596 4.0340691-1.8605423 5.2964935-2.3956985 1.472496-.6242142 3.2040329-.7032013 3.9136238-.522583.4548683.1157837.6293831.35952.8176918.7366028.4134407-.2419052.7317734-.4899597 1.2452316-.4980698 1.0140038-.0160217 1.7705803.8365479 1.1678123 1.7374649-.1972389.2948074-.558136.7240753-.8326874.9584656-1.3125191 1.1204834-2.3445587 2.4412384-3.6070366 3.5895462" fill="#dc2e2f"/></g></g></g><g><g><g><g><path d="m47.9585762 73.9326401c.1698723-.2723846.0249557-.6060028-.2423706-.7713547-.2743416-.1697006-.6292458-.1945648-.9659843-.2011261-5.3097343-.1034241-10.3844337 3.4123306-11.6209221 7.9242401-.5414734 1.9758072-.2655067 4.3526001 1.5017471 5.6174393 2.0156059 1.4425888 5.1423187.7871475 7.0597305-.7821274 2.8547401-2.3364258 4.123703-6.6718369 5.7249184-8.4135132.5985031-.6510086 2.0401917-1.8291321 2.2351952-2.8350983.1880989-.9703369-.9330101-1.3371887-1.8421745-1.3148804-.681614.0167161-1.4406167.2652284-1.8501397.7764207z" fill="#e94641"/></g></g></g><g><g><g><path d="m42.8287735 79.7049637c-.0162735 0-.0334091-.0038605-.0488281-.0115662-.0548286-.0274124-.0762444-.0929489-.0488319-.1473465 1.2464561-2.4843445 3.172245-4.6637039 5.5692062-6.3020859.1157684-.0828323.2459221.0987015.1233597.1807556-2.3661194 1.6178207-4.267067 3.768486-5.4972458 6.219841-.0188446.0381242-.057396.060402-.0976601.060402z" fill="#302525"/></g></g></g></g><g><g><g><g><path d="m52.2503395 46.9455147c-.0202408.4283791-.2313652.7811661-.4715004.7883873-.2400627.0072174-.4186058-.3336487-.3988419-.7617607.0197868-.4285698.2307777-.782402.4713173-.7898865.2406159-.0074921.4192887.3344192.399025.7632599z" fill="#fff"/></g></g></g><g><g><g><path d="m51.9318886 48.7473907c-.0109253.2326279-.1257668.4241943-.2564926.4279976-.1306992.0037994-.2279015-.1815376-.2171211-.4140854.010788-.2326851.1255951-.4245605.2564354-.4284401.1308708-.0038833.2281112.1817627.2171783.4145279z" fill="#fff"/></g></g></g></g><g><g><g><g><path d="m34.0199776 45.6553116c-.0103416.4247169-.2090759.7746544-.4438286.7820129-.2346802.0073547-.4168663-.3304443-.4069824-.7548981.0098915-.4249039.208477-.7758675.443615-.7834854.2352103-.0076217.4175452.3311997.407196.7563706z" fill="#fff"/></g></g></g><g><g><g><path d="m33.7482529 47.4420128c-.0055504.230648-.1136665.4206734-.2414665.4245529-.1277771.0038795-.2269554-.1797943-.2215424-.4103661.0054169-.2307053.1134872-.4210358.2413979-.4249916.1279373-.0039558.2271614.1800194.221611.4108048z" fill="#fff"/></g></g></g></g><g><g><g><path d="m30.770586 87.8524017c-.3357258.0743256-.6295643.273468-.8727818.5149536-.3808537.3947449-.6274815.8784561-.9343815 1.3206558-.3186073.4334259-.7587109.8453903-1.3052635.9322662-.4095592.0651093-.8382187-.1177597-1.0627117-.4336777-.2723389-.4089584-.0335674-.7894516.304287-1.0955353 1.0175629-.9106978 2.4784813-1.3891142 3.8708515-1.2386626z" fill="#71d0ff"/></g></g></g><g><g><g><path d="m35.7309914 89.0839844c-.3379631.0740585-.6346283.2729874-.8806801.5143127-.3854027.3944931-.6364594.8780823-.9478264 1.3200989-.323082.4332352-.7681541.8448868-1.3181114.9313202-.412117.0647659-.8418159-.1184998-1.0654278-.4346619-.2711029-.4092636-.0286217-.7896194.3129768-1.0954666 1.0287724-.9099884 2.5004101-1.3872604 3.8990689-1.2356033z" fill="#71d0ff"/></g></g></g><g><g><g><path d="m31.7206459 85.2961121c-.2773399-.1857681-.6282673-.2563934-.9806747-.2622299-.5655651.0022659-1.1159115.1605148-1.6723118.2477188-.5573006.0729523-1.1770382.045311-1.6046619-.2814636-.3207932-.2451324-.4540825-.6749649-.3460331-1.0520477.1519547-.475502.6160831-.5682907 1.0847149-.5393295 1.400423.0947951 2.737236.8006056 3.5189666 1.8873519z" fill="#71d0ff"/></g></g></g><g><g><g><path d="m42.7544556 58.4999542c.2419014 1.6198502-.6860313 3.1426888-2.0686607 3.4062271-1.3792.262886-2.6968384-.825882-2.9469643-2.4366455-.2510605-1.6167641.6669044-3.1518326 2.0543175-3.4238167 1.390892-.2726707 2.7184944.8283234 2.9613075 2.4542351z" fill="#1e8d68"/></g></g></g><g><g><g><path d="m29.3687973 71.6719818c-.0625362 0-.1242161-.0265579-.1670494-.0775299-5.3053493-6.2652512-7.0520973-15.2362823-4.5583344-23.4114685.0851936-.2748489.5044937-.1513367.4197674.1276436-2.4509296 8.0346947-.7367344 16.8476753 4.4726677 23.0002632.0788136.0925217.0668201.2308731-.0257015.3092575-.0411186.0346985-.0908051.0518341-.1413498.0518341z" fill="#010101"/></g></g></g><g><g><g><path d="m21.2561455 31.4668064c-.0616798 0-.1233597-.0261288-.1670494-.0766716-.0779572-.0920925-.0676765-.2308712.0248432-.3092575 5.0235043-4.2910538 10.6586704-7.862505 16.7512989-10.6154099.2663155-.1175518.4435844.2804871.1799011.4000645-6.0540791 2.7353439-11.6549778 6.2845211-16.6467857 10.5485897-.0411206.0355511-.0916653.0526848-.1422081.0526848z" fill="#010101"/></g></g></g><g><g><g><path d="m73.976387 16.9612656c-.3007431-.0159969-.2533646-.4695377.0239868-.4377575 2.7331696.1514034 5.430748-3.0300875 3.8678589-5.7431068-.4206238-.729454-1.075119-1.2400284-1.8435516-1.4383469-.277153-.0718174-.1771164-.4940596.1096573-.4249077 1.9368896.4997206 3.0360107 2.6420803 2.4860535 4.6161585-.558342 1.9964599-2.7193986 3.543437-4.6440049 3.4279604z" fill="#010101"/></g></g></g><g><g><g><path d="m77.714035 30.2901726c-9.6186752 0-18.5108948-3.9261131-24.4416122-10.8034477-.0788155-.0916634-.0685349-.2300167.0231285-.3092575.0916634-.0783863.2295876-.0685349.3092575.0231304 5.8467636 6.7792473 14.6199074 10.6509609 24.1092262 10.6509609.1079407 0 .2150269-.0008564.323822-.0017147h.001709c.1199341 0 .2184525.0968037.2193069.2171669.0008621.1212177-.0959396.2201633-.2175903.2214489-.1087951.0008564-.2184524.0017128-.3272476.0017128z" fill="#010101"/></g></g></g><g><g><g><path d="m16.6943855 25.6436024c-.1105099 0-.2056007-.0830975-.2175941-.195322-.2210197-1.9913254.2886982-4.1304264 1.3972263-5.8686066.1579704-.2441349.5260258-.0085945.3700809.2355824-1.0562725 1.6555119-1.5411472 3.690958-1.332119 5.5850525.0137062.1203613-.0728168.2287292-.1936073.2420082-.0077095.0008563-.0162773.0012855-.0239868.0012855z" fill="#010101"/></g></g></g><g><g><g><path d="m14.627244 23.6998215c-.1070833 0-.2004604-.0779572-.2167368-.186327-.1302137-.8609505.0051394-1.7797279.3820734-2.5871391.0522575-.1092243.1833277-.1567707.2912674-.1057987.1096535.0514011.1576271.1816139.1062269.2916965-.3409538.729454-.4634571 1.5591373-.3460941 2.3352776.0179901.1199341-.06425.2317295-.1841831.2497196-.011137.0017128-.022274.0025711-.0325537.0025711z" fill="#010101"/></g></g></g><g><g><g><path d="m83.5470886 27.2832661c-.015419 0-.030838-.0017147-.046257-.0047131-.1182175-.0256996-.1936035-.1422062-.1679077-.2604256.4805908-2.2410469.1739044-4.5069351-.8626633-6.3804684-.0582581-.1057987-.0205612-.239439.0856628-.2981205.1053696-.0582542.2390137-.0205612.2981262.0856667 1.0879669 1.9660549 1.4109268 4.3403111.9072113 6.6845856-.0214156.1032276-.1130828.1734753-.2141723.1734753z" fill="#010101"/></g></g></g><g><g><g><path d="m85.2998352 24.8910179c-.0145645 0-.029129-.0012836-.0436859-.004282-.1182251-.0239868-.1953278-.139637-.1713409-.2587147.2158813-1.0644112.175621-2.1485252-.1165009-3.1354065-.0342712-.1160793.0325546-.2381554.148201-.2724209.1207886-.0351238.2390137.0321236.2732773.1482029.3109741 1.054987.35466 2.212347.1250763 3.3470039-.0214157.1036569-.1122284.1756173-.2150269.1756173z" fill="#010101"/></g></g></g><g><g><g><path d="m47.5541611 13.6331072c-.1113701 0-.206459-.0835247-.2184525-.1961765-.0933762-.8930769-.4086304-1.7368956-.9106369-2.4397926-.1686897-.2376032.188591-.4905901.3563728-.2552872.5465546.7650051.8892212 1.6807842.9911652 2.6488199.0119934.1207895-.075386.2287302-.1953201.2411518-.0077095.0008564-.015419.0012846-.0231285.0012846z" fill="#010101"/></g></g></g><g><g><g><path d="m49.8294716 13.0531425c-.0025711 0-.0059967 0-.0094223 0-.1207924-.0051394-.2150269-.1075115-.2098846-.2287302l.1233597-2.9182415c.0120964-.2832384.4510727-.2749739.4386139.0188465l-.1233597 2.9182415c-.0051385.1177922-.101944.2098837-.219307.2098837z" fill="#010101"/></g></g></g><g><g><g><path d="m51.8340759 13.1203909c-.0308418 0-.0625381-.0064249-.0925217-.0205593-.1096535-.050972-.1576271-.1811857-.1062241-.2912674l.8078384-1.7407513c.0505409-.1087961.1816139-.1563416.2912674-.1062269.1096535.050972.1576271.1811857.1062241.2912674l-.8078384 1.7407513c-.0368347.0796699-.1165046.1267862-.1987457.1267862z" fill="#010101"/></g></g></g></g></g></g></svg>